<?xml version="1.0" standalone="no"?>
<!DOCTYPE svg PUBLIC "-//W3C//DTD SVG 20010904//EN"
 "http://www.w3.org/TR/2001/REC-SVG-20010904/DTD/svg10.dtd">
<svg version="1.0" xmlns="http://www.w3.org/2000/svg"
 width="4800.000000pt" height="4800.000000pt" viewBox="0 0 4800.000000 4800.000000"
 preserveAspectRatio="xMidYMid meet">

<g transform="translate(0.000000,4800.000000) scale(0.100000,-0.100000)"
fill="#6B01BB" stroke="none">
<path d="M19025 38114 c-27 -2 -131 -8 -230 -14 -1817 -108 -3580 -750 -5010
-1823 -672 -504 -1208 -1047 -1753 -1777 -71 -94 -82 -105 -108 -103 -16 1
-90 9 -164 18 -414 48 -810 88 -1090 110 -107 8 -256 21 -330 28 -184 16
-1224 16 -1460 -1 -541 -39 -581 -43 -920 -83 -1830 -214 -3462 -803 -4828
-1743 -443 -305 -769 -573 -1107 -911 -500 -500 -863 -1000 -1160 -1600 -164
-333 -266 -594 -369 -950 -244 -837 -313 -1801 -195 -2725 216 -1695 1079
-3100 2579 -4201 867 -635 1885 -1084 3005 -1324 363 -78 802 -146 1125 -174
69 -6 145 -14 170 -16 280 -30 1017 -44 1285 -25 574 43 1212 183 1970 435
356 118 525 191 525 228 0 18 -52 67 -71 67 -19 0 -182 -55 -309 -105 -613
-238 -1335 -394 -2005 -432 -168 -10 -773 -10 -980 0 -183 8 -530 40 -685 63
-58 8 -136 20 -175 25 -140 21 -441 78 -573 110 -48 11 -116 27 -152 36 -302
71 -845 256 -1123 382 -34 15 -87 38 -117 51 -84 36 -467 231 -535 272 -33 20
-91 54 -130 77 -74 42 -226 138 -329 207 -82 54 -350 245 -356 253 -3 4 -23
20 -45 37 -62 45 -185 144 -230 183 -22 20 -70 61 -105 91 -253 215 -553 521
-791 805 -41 50 -84 102 -94 116 -11 15 -59 78 -106 140 -150 199 -348 506
-464 719 -58 108 -205 405 -205 415 0 3 -15 40 -34 83 -70 158 -184 468 -207
557 -4 17 -21 77 -38 135 -45 151 -82 298 -110 440 -46 224 -52 259 -76 440
-54 392 -60 495 -60 975 0 422 4 512 36 760 14 109 38 270 50 328 5 26 13 68
18 95 23 116 57 267 76 332 7 25 18 63 24 85 13 49 59 201 71 235 39 117 98
272 132 349 11 24 28 67 39 95 49 124 211 437 313 606 28 46 53 89 56 95 19
38 232 347 286 415 7 8 50 62 95 120 45 58 85 107 88 110 3 3 29 32 56 65 239
286 626 657 965 926 292 231 540 407 825 583 105 65 202 127 217 137 15 11 29
19 32 19 4 0 37 19 189 106 114 66 424 226 567 292 167 78 242 112 245 112 3
0 33 13 67 29 35 15 74 32 88 36 14 4 48 18 75 30 28 12 106 44 175 70 69 26
152 57 185 70 33 13 143 51 245 84 102 34 214 71 250 82 63 21 98 31 170 49
19 5 78 20 130 35 52 15 149 40 215 56 66 16 136 34 155 39 57 14 162 38 215
49 325 66 373 75 515 96 58 9 128 20 155 25 99 18 195 32 282 41 110 12 233
26 298 33 476 55 1229 83 1760 66 176 -6 359 -15 406 -20 47 -6 112 -10 144
-10 131 0 1067 -99 1082 -114 3 -3 -35 -78 -85 -168 -179 -325 -324 -625 -467
-969 -170 -406 -334 -903 -431 -1309 -20 -85 -40 -158 -43 -162 -3 -4 -40 -3
-81 2 -646 73 -1152 83 -1675 35 -1377 -129 -2533 -667 -3472 -1616 -595 -602
-972 -1290 -1112 -2030 -57 -299 -76 -536 -68 -854 13 -521 110 -938 318
-1370 311 -645 926 -1244 1664 -1620 546 -278 1104 -415 1755 -432 520 -13
1017 51 1487 192 186 55 319 102 431 152 29 12 55 23 58 23 22 0 341 161 497
252 67 38 142 81 167 96 24 14 101 61 170 105 346 220 537 373 621 494 38 54
37 91 0 127 l-29 28 -49 -33 c-26 -18 -133 -96 -238 -174 -641 -479 -1196
-754 -1855 -920 -171 -42 -179 -44 -330 -70 -235 -39 -410 -55 -665 -62 -740
-18 -1342 119 -1915 438 -114 64 -340 223 -460 324 -25 21 -115 108 -200 194
-309 311 -512 635 -651 1042 -17 52 -35 108 -39 124 -5 17 -15 55 -23 85 -86
324 -119 769 -81 1098 20 175 48 335 72 407 5 17 15 50 22 75 37 134 148 388
217 498 18 29 33 55 33 58 0 11 146 211 218 298 305 365 764 695 1297 931 182
80 432 172 575 211 145 40 248 67 280 75 19 4 67 15 105 24 140 32 444 81 650
104 412 47 1078 56 1495 21 305 -26 498 -50 630 -78 l35 -8 12 -139 c102
-1182 357 -2134 808 -3020 321 -630 695 -1144 1200 -1651 494 -495 1031 -897
1700 -1269 125 -70 586 -305 598 -305 3 0 53 -22 111 -50 58 -27 108 -50 110
-50 3 0 67 -26 143 -59 76 -32 193 -80 261 -106 l122 -47 0 -356 c0 -492 -19
-816 -71 -1192 -76 -555 -235 -1114 -462 -1625 -64 -145 -90 -195 -100 -195
-5 0 -90 41 -190 91 -619 312 -1108 604 -1399 835 -339 271 -558 674 -558
1029 0 86 13 208 30 283 27 117 36 144 73 237 22 55 52 120 65 145 14 25 34
61 45 80 31 56 136 199 206 280 123 143 315 312 521 460 41 30 77 57 80 60 3
3 38 34 78 69 79 70 90 98 52 139 -53 56 -171 39 -367 -53 -175 -82 -378 -218
-633 -425 -479 -387 -684 -627 -874 -1021 -177 -367 -257 -753 -257 -1239 0
-362 39 -621 140 -910 163 -472 438 -830 906 -1182 210 -158 486 -330 763
-475 67 -36 122 -69 122 -74 0 -13 -150 -197 -293 -358 -227 -254 -456 -474
-654 -627 l-85 -65 -143 36 c-78 20 -169 40 -201 45 -197 30 -408 49 -614 55
-247 7 -716 -7 -860 -25 -47 -5 -125 -15 -175 -21 -990 -121 -1880 -481 -2648
-1072 -138 -106 -320 -262 -449 -386 -90 -86 -111 -101 -130 -96 -122 35 -290
92 -355 121 -17 8 -34 14 -37 14 -14 0 -229 102 -334 159 -338 183 -590 452
-685 731 -45 135 -69 296 -47 330 7 12 15 9 47 -14 219 -161 456 -278 667
-329 76 -18 119 -21 266 -21 161 1 182 3 264 28 381 115 685 450 767 846 19
88 19 385 0 465 -76 334 -282 608 -581 772 -85 47 -235 99 -355 124 -129 27
-387 32 -490 11 -243 -52 -440 -156 -629 -334 -376 -351 -556 -737 -532 -1143
28 -502 269 -947 711 -1315 271 -225 632 -419 1031 -552 85 -28 154 -54 154
-58 0 -4 -26 -38 -58 -76 -398 -477 -697 -1019 -887 -1606 -113 -348 -180
-683 -227 -1118 -18 -170 -18 -884 0 -1035 42 -351 69 -509 129 -755 213 -879
681 -1681 1371 -2351 231 -224 436 -398 697 -589 144 -105 452 -311 585 -391
159 -96 197 -117 362 -208 70 -38 356 -181 423 -211 28 -12 78 -35 111 -50
235 -108 673 -267 974 -355 688 -201 1304 -304 2120 -356 252 -16 918 -17
1100 -1 457 40 799 87 1100 152 52 12 115 25 140 30 25 5 108 25 185 44 939
233 1949 665 2655 1136 691 461 1226 1033 1560 1668 22 41 39 62 51 62 10 0
74 -13 144 -30 464 -110 1079 -205 1562 -241 320 -24 444 -27 868 -24 407 4
601 13 935 44 1025 97 1984 352 2863 762 545 255 1107 605 1564 976 362 294
697 636 945 968 607 811 912 1749 912 2805 0 475 -55 888 -175 1324 -216 790
-633 1532 -1257 2241 -143 161 -517 535 -677 675 -206 180 -246 214 -388 324
-836 653 -1788 1137 -2822 1435 -77 23 -153 45 -170 50 -116 36 -582 140 -850
191 -187 35 -622 96 -860 120 -218 21 -204 18 -209 53 -22 137 -26 298 -26
921 l0 695 33 5 c17 3 68 10 112 16 374 51 860 184 1312 359 73 28 139 51 146
51 9 0 19 -19 26 -47 122 -498 406 -1005 780 -1396 66 -69 278 -260 336 -303
22 -16 42 -31 45 -34 37 -41 332 -237 505 -335 115 -66 402 -207 475 -235 19
-7 49 -19 65 -26 137 -61 492 -175 695 -223 740 -177 1607 -210 2348 -90 955
154 1787 540 2572 1193 176 147 589 557 727 721 519 622 850 1263 1029 1995
l47 189 27 -14 c15 -8 47 -29 71 -47 100 -77 163 -107 279 -134 194 -45 319
-21 494 97 111 74 535 518 851 890 415 487 924 1179 1116 1514 86 151 221 433
253 529 74 224 52 444 -65 638 -49 81 -89 121 -170 170 -73 44 -153 76 -229
90 -83 16 -231 3 -330 -27 -156 -49 -475 -230 -651 -371 -271 -216 -539 -552
-794 -997 -37 -65 -71 -115 -76 -110 -4 4 -22 67 -40 138 -54 218 -237 646
-374 877 -229 382 -403 545 -670 624 -85 25 -270 25 -345 0 -72 -24 -141 -59
-201 -102 -27 -19 -53 -34 -58 -34 -5 0 -19 12 -31 28 -66 84 -311 320 -446
428 -386 310 -821 516 -1284 608 -250 50 -615 70 -845 47 -548 -56 -1045 -279
-1543 -694 -150 -125 -374 -351 -483 -487 -116 -145 -235 -329 -291 -450 -62
-133 -81 -180 -112 -281 -82 -264 -106 -529 -71 -794 48 -369 166 -619 404
-856 197 -195 395 -304 650 -355 105 -21 337 -29 443 -15 314 42 567 192 656
391 64 143 61 355 -7 488 -69 136 -203 202 -406 202 -228 -1 -362 -62 -431
-197 -24 -48 -30 -73 -32 -144 -4 -85 -3 -88 31 -140 43 -65 74 -99 150 -163
49 -41 57 -53 57 -83 0 -111 -94 -182 -271 -204 -268 -33 -530 83 -721 320
-173 215 -291 471 -344 746 -27 137 -24 434 4 580 81 410 264 740 607 1093
529 546 1184 826 1930 826 246 0 379 -13 595 -60 306 -66 621 -207 899 -401
167 -117 437 -371 591 -557 108 -131 108 -131 76 -195 -60 -118 -110 -294
-131 -466 -28 -226 -17 -351 72 -795 6 -31 48 -185 69 -260 17 -58 96 -274
119 -325 7 -16 37 -84 65 -150 149 -346 390 -778 563 -1007 l58 -78 -16 -87
c-32 -180 -37 -210 -51 -273 -88 -398 -195 -699 -379 -1075 -161 -327 -307
-559 -566 -900 -234 -308 -635 -712 -969 -976 -675 -534 -1458 -870 -2290
-983 -220 -30 -282 -36 -510 -47 -440 -22 -960 14 -1388 95 -644 123 -1179
348 -1622 684 -532 404 -895 955 -1068 1622 -41 156 -81 356 -82 402 0 10 28
32 78 59 82 46 299 180 422 262 296 197 622 477 800 687 30 36 57 67 60 70 14
12 122 162 167 232 101 155 206 396 249 571 45 188 59 484 29 638 -36 189
-118 323 -241 395 -148 87 -427 90 -659 7 -312 -112 -606 -372 -874 -771 -369
-552 -526 -1142 -491 -1847 6 -115 15 -239 21 -274 5 -35 8 -65 7 -67 -9 -8
-261 -100 -463 -169 -367 -124 -773 -229 -1009 -260 l-49 -7 7 124 c7 114 18
229 46 498 16 147 56 428 86 600 14 80 29 168 34 195 30 176 126 593 176 765
13 47 29 101 34 120 5 19 22 73 36 120 276 894 643 1613 1164 2280 167 213
137 194 325 209 88 7 185 16 215 21 30 5 89 14 130 20 88 13 219 37 275 50
691 159 1195 410 1635 814 224 206 458 470 591 668 33 48 59 89 59 92 0 2 18
34 39 71 49 83 113 242 142 350 26 102 35 276 21 426 -7 63 -14 160 -18 215
-8 124 -14 137 -48 105 -45 -42 -76 -190 -76 -361 0 -177 -65 -312 -235 -489
-251 -261 -586 -458 -920 -540 -480 -118 -1067 -85 -1525 86 -328 122 -757
425 -1379 971 -287 252 -345 301 -576 476 -370 281 -803 542 -1095 662 -340
139 -684 215 -1200 266 -184 18 -858 18 -1000 0 -624 -79 -1132 -252 -1645
-562 l-115 -69 -62 87 c-279 387 -567 724 -887 1041 -512 507 -1039 898 -1686
1252 -84 46 -140 83 -140 92 0 8 45 52 100 97 55 45 111 91 124 102 55 47 343
259 426 315 388 259 636 397 1045 581 40 17 114 48 175 72 11 4 49 19 85 33
94 38 360 124 480 157 19 5 59 16 88 24 56 15 51 16 197 -45 63 -26 149 -42
230 -43 81 0 95 3 142 28 61 33 104 90 131 172 19 56 22 60 69 76 83 28 103
24 253 -54 l137 -72 54 13 c76 19 126 50 191 120 l56 61 64 0 c37 0 71 -5 79
-12 9 -7 28 -45 43 -84 66 -175 165 -268 316 -300 54 -11 85 -12 124 -5 165
30 260 119 327 303 16 45 31 83 33 85 9 10 193 -30 210 -45 11 -9 33 -30 50
-45 32 -29 140 -87 161 -87 7 0 61 25 120 56 l108 55 71 -11 c112 -19 133 -27
141 -57 11 -45 46 -85 93 -105 69 -31 122 -26 241 21 58 22 115 41 128 41 67
0 345 -79 508 -145 219 -87 399 -162 455 -187 36 -17 88 -40 115 -53 145 -65
223 -103 350 -167 165 -83 276 -142 327 -175 21 -12 40 -23 43 -23 11 0 279
-172 395 -253 129 -90 337 -255 420 -332 30 -29 78 -72 105 -96 137 -119 531
-517 681 -686 60 -68 115 -123 122 -123 20 0 35 45 28 83 -8 43 -63 134 -146
239 -121 153 -527 546 -821 794 -541 457 -1295 847 -2264 1170 l-250 83 -61
73 c-33 40 -76 85 -95 99 -44 34 -113 69 -136 69 -10 0 -50 -32 -90 -72 l-72
-71 -78 35 c-58 25 -83 43 -98 67 -61 101 -134 155 -232 176 -119 25 -202 1
-298 -87 l-54 -49 -72 3 -73 3 -23 60 c-40 102 -63 147 -108 215 -53 79 -96
120 -166 157 -48 24 -65 27 -149 28 -84 0 -102 -3 -152 -28 -103 -51 -196
-175 -244 -327 -9 -30 -22 -60 -28 -66 -6 -6 -53 -18 -104 -27 l-93 -16 -127
70 c-144 80 -176 86 -274 49 -62 -23 -122 -80 -157 -149 -12 -22 -30 -45 -40
-51 -11 -5 -62 -15 -115 -22 -85 -11 -97 -10 -113 4 -60 55 -186 74 -260 41
-60 -27 -141 -85 -230 -162 -79 -69 -87 -73 -215 -115 -907 -298 -1794 -796
-2446 -1374 l-73 -65 -142 71 c-409 202 -1080 416 -1912 607 -220 51 -278 65
-283 70 -7 7 37 64 167 215 128 149 171 197 326 359 191 201 493 488 598 569
19 15 75 61 123 103 49 41 127 104 174 140 46 35 90 69 96 75 15 13 178 131
289 208 84 58 415 270 475 304 19 11 67 38 107 61 39 22 89 50 110 62 59 34
430 220 508 256 39 17 99 45 135 61 36 16 112 49 170 72 58 23 119 48 135 55
17 7 75 29 130 50 55 20 109 41 120 45 11 5 29 10 40 13 11 3 58 19 105 35
115 41 291 97 415 132 31 8 152 42 215 60 19 5 82 20 140 34 58 14 153 36 212
51 59 14 115 25 125 25 9 0 30 4 47 9 34 11 144 33 244 50 34 6 88 15 120 21
51 9 124 20 322 50 94 14 298 38 425 49 564 53 848 64 1450 58 628 -7 1094
-36 1575 -97 41 -5 111 -14 155 -19 44 -6 125 -17 180 -26 55 -9 127 -20 160
-25 53 -8 133 -23 275 -50 25 -5 70 -13 100 -19 30 -5 93 -18 140 -29 47 -11
139 -32 205 -47 66 -14 143 -33 170 -40 28 -8 76 -21 108 -30 148 -39 177 -47
247 -69 41 -13 116 -36 165 -51 232 -70 651 -223 815 -298 30 -13 93 -41 140
-62 98 -43 503 -242 570 -280 25 -15 65 -37 90 -51 25 -13 70 -39 100 -57 30
-17 79 -46 108 -62 140 -79 582 -383 707 -487 11 -9 76 -62 145 -119 158 -129
475 -446 609 -609 586 -709 869 -1517 844 -2410 -14 -531 -169 -980 -466
-1354 -329 -413 -736 -654 -1241 -733 -136 -22 -472 -24 -625 -5 -246 31 -457
94 -665 199 -89 45 -228 134 -291 188 -67 57 -165 125 -180 125 -18 0 -38 -55
-32 -83 6 -21 96 -116 162 -170 17 -13 78 -57 138 -96 336 -224 659 -312 1142
-314 303 0 540 39 813 134 188 66 412 190 587 326 96 74 291 267 370 366 263
328 415 688 476 1127 37 266 26 684 -27 990 -93 549 -320 1083 -667 1570 -326
456 -803 922 -1357 1325 -657 478 -1469 917 -2255 1220 -997 384 -2018 601
-3170 676 -154 10 -977 20 -1080 13z m-6855 -3923 c19 -5 62 -14 95 -21 33 -6
76 -15 95 -20 19 -5 69 -16 110 -25 41 -8 91 -20 110 -25 19 -5 82 -20 140
-34 532 -128 897 -235 1315 -384 204 -73 445 -176 445 -191 0 -4 -33 -36 -72
-71 -156 -136 -288 -292 -288 -342 0 -15 16 -5 73 43 39 34 81 69 92 78 11 9
75 62 141 119 67 56 127 102 133 102 7 0 35 -13 64 -29 29 -15 88 -47 132 -71
237 -127 478 -275 735 -452 594 -409 1082 -861 1516 -1403 122 -153 354 -482
354 -503 0 -5 -37 -43 -82 -84 -294 -268 -584 -596 -913 -1033 -156 -207 -156
-207 -125 -240 13 -14 29 -25 36 -25 7 0 55 35 106 78 420 351 859 611 1242
737 63 21 81 23 88 13 11 -16 117 -233 153 -313 107 -238 196 -476 312 -825
46 -140 86 -262 89 -270 9 -26 33 31 34 80 0 42 -23 231 -34 275 -3 11 -12 52
-21 90 -19 80 -21 86 -74 250 -60 187 -222 567 -312 737 -12 23 14 36 116 58
159 34 332 45 499 31 208 -18 299 -33 512 -87 185 -48 431 -138 589 -218 349
-174 830 -502 1395 -950 568 -451 778 -608 1089 -816 371 -248 591 -365 896
-477 287 -105 509 -158 770 -183 194 -20 192 -12 20 -125 -1564 -1026 -2570
-2582 -3039 -4700 l-42 -190 -637 -3 -637 -2 -35 47 -35 48 0 123 c0 67 2 122
4 122 2 0 25 -12 52 -27 40 -23 62 -28 115 -28 56 0 71 4 101 27 38 29 71 90
96 178 12 42 16 105 16 270 1 195 -2 222 -22 286 -36 115 -97 183 -178 198
-26 5 -48 -1 -103 -29 -39 -19 -73 -35 -76 -35 -3 0 -5 56 -5 124 0 134 -6
113 79 266 17 30 45 82 62 116 l32 61 -36 149 c-43 179 -67 292 -67 319 0 14
27 38 92 80 212 138 434 336 577 515 301 375 444 820 428 1326 -13 436 -141
759 -407 1024 -181 182 -446 337 -712 416 l-47 14 -4 813 c-4 845 -4 841 -45
914 -7 13 -24 26 -37 29 -39 10 -72 -19 -91 -78 -16 -48 -18 -129 -22 -844
l-4 -791 -171 -6 c-254 -8 -414 -43 -592 -128 -134 -64 -233 -136 -355 -258
-153 -153 -230 -271 -291 -446 -51 -150 -64 -233 -64 -430 0 -310 51 -479 166
-557 35 -23 53 -28 104 -28 103 0 146 50 146 170 0 89 -23 144 -98 224 -85 90
-113 196 -113 421 1 318 119 537 386 711 104 69 205 114 324 147 158 43 198
49 383 54 l177 6 0 -1560 c0 -1749 4 -1643 -68 -1662 -70 -18 -267 -60 -357
-76 -287 -51 -695 -10 -1036 105 -291 99 -615 294 -793 478 -38 40 -39 43 -58
174 -60 429 -180 938 -320 1353 -344 1021 -902 1908 -1663 2645 -348 337 -612
549 -990 795 -750 488 -1674 840 -2620 1000 -82 14 -159 27 -171 30 -19 4 -20
9 -13 61 8 57 22 130 39 194 5 19 16 69 26 110 9 41 20 89 24 105 5 17 13 48
19 70 6 22 32 110 57 195 25 85 49 169 54 185 9 35 95 277 135 380 26 69 34
88 73 175 11 25 30 70 43 100 37 89 203 417 270 535 59 104 246 404 259 415 3
3 14 19 24 35 26 41 57 75 70 75 6 0 27 -4 46 -9z m-1065 -4432 c413 -119 966
-349 1350 -564 658 -367 1228 -850 1689 -1429 780 -980 1285 -2284 1500 -3876
36 -265 58 -471 52 -478 -10 -9 -385 144 -646 264 -126 58 -468 231 -563 285
-38 22 -70 39 -72 39 -1 0 -55 32 -119 70 -65 39 -119 70 -121 70 -3 0 -30 17
-62 39 -32 21 -110 72 -173 113 -1135 741 -1993 1770 -2487 2983 -35 88 -68
169 -73 180 -36 86 -144 411 -193 580 -29 101 -64 235 -117 460 -14 57 -51
242 -60 295 -4 25 -17 101 -29 170 -11 69 -25 157 -31 195 -5 39 -14 104 -20
145 -32 233 -52 502 -38 511 6 4 40 -2 77 -13 36 -11 98 -28 136 -39z m8355
-1596 c114 -42 280 -128 370 -191 83 -58 224 -200 277 -278 173 -255 247 -574
223 -969 -23 -377 -138 -697 -359 -995 -67 -90 -269 -297 -366 -372 -60 -48
-235 -170 -272 -192 -10 -6 -13 301 -13 1519 l0 1526 23 -6 c12 -4 65 -23 117
-42z m6183 -2087 c60 -29 145 -114 177 -175 39 -78 53 -151 52 -275 -5 -657
-443 -1278 -1317 -1868 -158 -107 -307 -198 -324 -198 -14 0 -15 385 -1 588
22 312 81 586 186 860 44 113 133 300 179 372 14 22 25 42 25 44 0 19 163 242
263 358 111 131 319 269 453 302 33 8 68 17 79 20 11 3 54 4 96 2 59 -2 89 -9
132 -30z m-8650 -880 c335 -209 718 -356 1072 -410 317 -48 541 -46 799 9 39
9 83 18 99 22 35 7 35 3 -5 -171 l-31 -140 20 -35 c11 -20 54 -92 96 -159 l77
-124 0 -119 0 -118 -52 32 c-45 28 -60 32 -117 31 -189 -2 -274 -149 -274
-474 -1 -132 3 -168 22 -238 29 -105 72 -167 140 -209 67 -40 137 -50 206 -29
78 25 75 29 75 -91 0 -108 -1 -108 -36 -157 l-36 -49 -147 7 c-816 37 -1345
90 -1781 176 -125 25 -293 69 -304 80 -8 8 -6 35 28 325 51 437 75 1072 57
1483 -7 152 -17 299 -22 325 -12 64 -11 97 2 97 6 0 57 -29 112 -64z m-100
-2387 c428 -95 1047 -174 1652 -210 105 -6 233 -14 284 -18 l95 -6 17 -60 c9
-33 40 -148 69 -255 29 -107 66 -243 81 -301 l29 -106 -2 -719 -3 -718 -265
-111 c-430 -180 -666 -290 -849 -398 -95 -56 -171 -121 -171 -146 0 -10 14
-30 31 -47 l30 -29 52 29 c158 88 613 310 742 363 153 63 341 128 401 139 l34
6 0 -1704 0 -1704 -81 -85 c-297 -307 -457 -504 -536 -657 -52 -100 -55 -135
-14 -157 l29 -15 99 122 c196 243 433 501 484 528 14 8 17 -16 22 -228 7 -247
13 -292 48 -336 25 -31 68 -35 93 -7 41 46 48 102 53 448 l6 333 71 63 c310
276 632 458 1046 591 212 69 643 159 683 143 8 -3 33 -42 57 -88 96 -187 283
-480 438 -689 178 -238 321 -401 566 -645 275 -275 501 -467 791 -675 50 -36
136 -103 193 -149 111 -92 109 -87 72 -161 -23 -44 -167 -246 -240 -336 -30
-37 -107 -131 -170 -208 -257 -313 -397 -523 -403 -602 -2 -25 3 -29 47 -43
49 -15 49 -15 65 9 45 69 393 526 506 665 270 332 426 472 1155 1039 179 139
586 448 906 687 881 660 1263 970 1540 1246 181 180 283 328 243 354 -44 29
-58 23 -142 -57 -185 -177 -237 -224 -342 -315 -306 -262 -510 -407 -740 -523
-129 -65 -147 -73 -240 -104 -132 -45 -182 -52 -354 -52 -316 0 -586 60 -891
198 -19 9 -75 38 -125 66 -545 304 -1012 898 -1318 1676 -96 245 -214 628
-256 835 -18 85 -72 352 -81 400 -24 123 -64 423 -80 595 -5 58 -12 119 -15
137 -3 17 -1 34 4 37 22 14 610 -59 931 -115 420 -73 984 -211 1285 -314 441
-151 754 -279 1070 -438 601 -301 1098 -635 1580 -1060 234 -206 579 -563 781
-807 862 -1041 1305 -2262 1304 -3599 0 -375 -24 -622 -95 -986 -14 -71 -29
-146 -35 -165 -88 -323 -118 -415 -203 -620 -243 -592 -637 -1138 -1152 -1598
-199 -178 -461 -383 -610 -477 -33 -21 -62 -41 -65 -45 -6 -8 -357 -230 -364
-230 -2 0 -51 -27 -108 -61 -100 -59 -476 -250 -588 -298 -30 -14 -80 -35
-110 -49 -76 -34 -82 -36 -200 -82 -58 -23 -114 -45 -125 -50 -85 -38 -516
-177 -680 -220 -642 -170 -1154 -254 -1850 -302 -239 -17 -1146 -17 -1415 0
-192 12 -246 16 -505 43 -140 14 -399 49 -510 69 -27 5 -70 12 -95 15 -25 4
-61 10 -80 15 -19 5 -62 14 -95 20 -116 23 -290 62 -313 71 -13 5 -32 9 -43 9
-11 0 -22 6 -25 13 -3 8 14 70 36 138 90 272 146 521 186 824 24 182 24 616 0
810 -36 294 -80 497 -155 723 -73 220 -107 302 -207 497 -161 317 -364 601
-614 859 -109 112 -292 275 -370 329 -359 246 -612 350 -999 412 -129 20 -417
20 -519 -1 -248 -50 -461 -172 -663 -380 -220 -227 -340 -465 -379 -752 -23
-164 3 -501 54 -727 142 -617 510 -1183 1101 -1690 544 -468 1317 -864 2200
-1130 50 -15 94 -31 99 -36 11 -10 -57 -131 -173 -303 -111 -166 -103 -155
-191 -266 -230 -291 -524 -581 -840 -826 -84 -65 -338 -244 -347 -244 -3 0
-14 -6 -22 -14 -18 -15 -207 -132 -286 -176 -27 -15 -75 -42 -105 -59 -63 -36
-513 -261 -522 -261 -4 0 -41 -16 -85 -36 -105 -48 -146 -66 -228 -99 -38 -15
-83 -33 -100 -40 -16 -7 -46 -18 -65 -25 -19 -6 -44 -16 -55 -21 -56 -25 -447
-158 -570 -193 -33 -10 -71 -21 -85 -26 -14 -4 -45 -13 -70 -20 -25 -7 -65
-18 -90 -26 -25 -7 -94 -24 -155 -39 -224 -53 -257 -60 -365 -80 -47 -9 -103
-20 -125 -25 -22 -5 -87 -16 -145 -25 -58 -9 -118 -18 -135 -21 -16 -4 -64
-10 -105 -14 -41 -4 -163 -17 -270 -28 -107 -11 -319 -26 -470 -32 -483 -21
-1325 26 -1798 100 -34 5 -92 14 -130 20 -58 9 -161 27 -342 60 -64 12 -257
55 -380 86 -58 14 -121 29 -140 34 -19 5 -60 16 -90 25 -61 18 -88 26 -172 49
-76 21 -299 95 -320 107 -10 5 -24 9 -31 9 -14 0 -256 93 -289 111 -10 5 -22
9 -27 9 -5 0 -44 16 -85 35 -42 19 -78 35 -80 35 -19 0 -434 204 -570 279 -60
34 -110 61 -113 61 -2 0 -83 50 -181 111 -531 335 -919 648 -1302 1055 -254
269 -461 543 -657 869 -89 148 -243 440 -243 460 0 2 -13 33 -29 67 -15 35
-47 113 -71 173 -23 61 -45 117 -49 125 -4 8 -20 56 -35 105 -16 50 -32 99
-37 110 -4 11 -10 29 -13 40 -2 11 -14 52 -25 90 -11 39 -32 120 -46 180 -14
61 -30 126 -35 145 -4 19 -16 76 -24 125 -9 50 -21 113 -26 140 -62 337 -87
1045 -49 1410 33 328 72 535 163 880 36 135 131 403 191 540 43 97 67 149 101
220 65 137 212 394 309 540 105 160 272 385 290 391 7 3 66 -2 131 -11 262
-35 510 -62 714 -79 476 -39 1161 63 1750 261 137 46 345 121 395 143 22 10
90 38 150 63 536 221 1214 607 1856 1058 69 49 134 89 143 89 21 0 266 -91
351 -130 33 -15 100 -46 148 -69 49 -23 94 -41 100 -41 16 0 69 49 63 59 -3 4
-36 20 -73 36 -37 16 -96 41 -131 57 -34 15 -65 28 -68 28 -3 0 -31 12 -62 26
-31 14 -91 39 -132 56 -111 44 -112 46 -38 103 35 27 65 52 68 55 3 3 37 32
75 64 122 102 300 268 698 649 l207 198 103 -54 c401 -212 667 -399 903 -632
431 -426 598 -854 556 -1417 -30 -389 -105 -632 -265 -851 -72 -99 -87 -123
-87 -144 1 -53 72 -80 148 -57 122 36 354 234 701 599 321 337 489 556 630
826 172 328 246 600 258 949 8 268 -9 424 -78 705 -36 147 -153 411 -253 573
-259 417 -688 803 -1228 1103 -54 30 -98 59 -98 65 0 6 19 40 41 75 142 219
206 324 347 574 70 125 322 624 322 639 0 3 13 33 29 68 112 243 282 706 370
1010 31 106 116 432 131 503 42 200 61 285 66 299 8 20 15 20 127 -5z m3727
-244 c0 -9 -14 -110 -30 -226 -70 -486 -107 -864 -118 -1231 -4 -125 -10 -229
-13 -232 -2 -3 -115 -30 -249 -61 -331 -77 -655 -174 -832 -249 -21 -9 -42
-16 -48 -16 -7 0 -10 212 -10 658 l0 658 85 345 c48 189 88 350 90 357 3 9
125 12 565 12 495 0 560 -2 560 -15z m-156 -1907 c3 -29 8 -154 11 -278 20
-821 205 -1725 501 -2437 36 -87 66 -164 67 -172 2 -15 -37 -30 -153 -56 -41
-9 -122 -30 -180 -47 -58 -16 -118 -33 -135 -38 -51 -13 -267 -91 -320 -115
-27 -12 -72 -30 -100 -41 -193 -72 -558 -284 -765 -445 l-65 -51 -3 1703 c-1
937 1 1706 5 1710 14 13 548 184 748 240 106 30 323 77 357 78 25 1 27 -2 32
-51z m-8474 -3588 c256 -11 449 -30 572 -55 100 -21 178 -44 178 -53 0 -9
-232 -168 -405 -278 -134 -84 -383 -234 -389 -234 -2 0 -48 -25 -102 -56 -142
-81 -669 -344 -689 -344 -2 0 -39 -16 -82 -36 -102 -48 -441 -183 -584 -235
-385 -137 -642 -212 -969 -283 -308 -66 -651 -93 -852 -66 -40 5 -136 16 -213
25 -77 9 -169 20 -205 25 -203 29 -291 44 -295 49 -4 8 138 141 274 257 867
734 1818 1146 2901 1259 128 13 317 24 575 33 22 1 150 -3 285 -8z m6045
-3166 c229 -32 474 -118 678 -240 183 -110 400 -298 557 -483 434 -512 691
-1100 787 -1796 25 -186 25 -717 0 -890 -36 -245 -101 -517 -168 -705 -17 -47
-35 -100 -41 -118 -12 -42 -28 -48 -81 -29 -23 8 -96 31 -162 51 -66 21 -129
41 -140 46 -11 5 -51 20 -90 33 -162 58 -197 71 -335 129 -431 178 -785 370
-1084 586 -259 187 -459 376 -682 643 -11 14 -61 86 -111 161 -287 430 -436
929 -435 1463 0 213 24 372 78 517 92 249 272 447 505 557 198 95 415 117 724
75z"/>
<path d="M25613 15613 c3 -10 28 -83 56 -163 130 -372 183 -680 184 -1070 1
-230 -3 -273 -39 -460 -55 -282 -200 -567 -386 -761 -138 -144 -322 -273 -403
-284 -78 -10 -149 -27 -164 -38 -7 -6 -33 -53 -58 -104 -24 -51 -49 -93 -54
-93 -5 0 -39 19 -76 43 -78 49 -120 70 -181 88 -39 11 -46 10 -100 -17 -46
-24 -65 -42 -103 -97 -25 -38 -56 -97 -69 -133 -26 -68 -39 -76 -77 -49 -71
49 -166 95 -198 95 -55 0 -110 -34 -152 -94 -35 -50 -42 -55 -98 -67 -78 -18
-400 -18 -520 -1 -379 55 -689 158 -1010 337 -70 39 -171 101 -190 117 -5 5
-40 30 -76 56 -112 80 -151 111 -229 180 -146 131 -184 169 -303 302 -183 206
-235 260 -250 260 -8 0 -20 -13 -27 -30 -10 -24 -10 -36 0 -62 37 -92 182
-257 384 -437 274 -243 451 -381 624 -484 439 -264 906 -387 1471 -387 l213 0
55 -50 c141 -129 247 -122 359 25 14 19 31 35 36 35 6 0 58 -30 117 -67 97
-61 110 -66 156 -64 155 6 253 99 273 259 l7 57 95 6 c76 4 105 10 140 30 60
33 98 97 112 185 5 38 12 78 14 89 2 11 31 40 66 65 135 95 285 237 393 370
183 228 310 508 362 800 25 147 26 523 0 660 -43 232 -105 432 -215 695 -30
71 -132 275 -139 275 -3 0 -3 -8 0 -17z"/>
<path d="M10795 14208 c-374 -69 -645 -211 -899 -472 -260 -266 -415 -578
-472 -946 -20 -137 -21 -429 0 -565 44 -289 154 -569 322 -824 128 -192 243
-326 441 -512 l100 -94 -15 -35 c-19 -44 -17 -102 7 -154 52 -114 178 -156
365 -121 l93 18 74 -57 c41 -31 110 -71 154 -90 l80 -33 12 -89 c23 -158 65
-239 156 -299 71 -46 124 -59 247 -59 101 0 108 1 182 37 49 24 90 52 115 80
21 24 43 46 49 50 6 4 80 -9 163 -28 84 -19 154 -35 157 -35 3 0 15 -22 28
-49 49 -108 110 -156 206 -168 68 -8 147 31 192 94 l33 45 55 -6 c390 -39 871
-28 1215 28 277 45 597 150 823 272 263 141 640 420 814 602 70 73 128 161
128 194 0 16 -50 68 -65 68 -7 0 -32 -26 -57 -57 -90 -115 -287 -304 -403
-388 -22 -16 -42 -32 -45 -35 -18 -23 -258 -165 -375 -221 -229 -110 -433
-176 -715 -233 -243 -48 -404 -61 -780 -61 -337 0 -526 13 -557 37 -7 5 -22
31 -34 56 -52 109 -133 172 -223 172 -69 0 -126 -30 -187 -100 -51 -58 -56
-61 -89 -55 -53 10 -151 53 -177 77 -15 14 -23 33 -23 57 -1 20 -7 63 -14 96
-41 191 -150 291 -345 316 -173 22 -324 -26 -441 -142 -49 -48 -67 -60 -84
-55 -35 9 -173 102 -189 128 -8 13 -17 57 -21 100 -10 134 -58 223 -140 262
-56 26 -100 20 -187 -26 l-80 -43 -116 120 c-224 232 -378 445 -494 680 -67
138 -121 281 -139 373 -40 195 -43 225 -43 372 0 241 26 384 106 585 73 180
172 336 309 480 235 248 494 389 813 440 118 20 410 19 557 0 219 -29 414 -89
586 -180 244 -130 457 -336 562 -545 61 -122 75 -180 94 -387 11 -122 18 -162
37 -200 36 -72 65 -88 157 -88 91 0 128 20 165 88 19 37 22 57 22 162 -1 152
-26 236 -125 410 -73 129 -308 393 -445 501 -27 21 -52 42 -55 46 -3 3 -56 40
-117 81 -98 65 -207 124 -333 180 -48 21 -207 73 -250 81 -19 4 -46 11 -60 16
-26 8 -164 32 -287 50 -87 12 -469 11 -538 -2z"/>
<path d="M43790 23634 c-105 -12 -264 -51 -369 -91 -219 -82 -395 -195 -544
-349 -34 -35 -67 -64 -73 -64 -7 0 -72 29 -145 64 -74 35 -170 76 -214 91
-411 138 -988 117 -1480 -54 -504 -176 -988 -463 -1349 -801 -198 -184 -365
-372 -510 -570 -42 -58 -80 -110 -85 -116 -45 -56 -351 -544 -351 -559 0 -3
-11 -22 -24 -43 -25 -39 -170 -326 -204 -402 -144 -325 -250 -602 -310 -815
-7 -22 -23 -78 -36 -125 -80 -273 -147 -558 -181 -765 -9 -55 -21 -116 -25
-135 -9 -33 -80 -169 -310 -595 -18 -33 -51 -94 -73 -135 -22 -41 -49 -91 -60
-110 -11 -19 -38 -69 -60 -110 -22 -41 -51 -92 -64 -112 -13 -21 -23 -40 -23
-42 0 -2 -20 -38 -45 -80 -24 -42 -61 -106 -82 -143 -20 -38 -81 -142 -135
-232 -54 -90 -98 -165 -98 -167 0 -1 -46 -77 -102 -168 -57 -91 -145 -234
-197 -318 -52 -84 -142 -224 -200 -311 -58 -87 -113 -169 -121 -182 -68 -102
-209 -273 -308 -374 -152 -154 -243 -226 -352 -279 -89 -44 -101 -47 -185 -50
-85 -3 -92 -2 -136 26 -61 39 -97 94 -146 222 -79 206 -119 375 -153 640 -5
41 -16 127 -25 190 -9 63 -20 158 -25 210 -5 52 -16 169 -24 260 -26 274 -46
746 -46 1065 0 512 30 977 105 1640 8 72 19 173 25 225 5 52 14 140 20 195 19
186 63 786 79 1075 26 452 33 684 34 1105 l2 450 -24 65 c-46 127 -110 213
-206 280 -84 58 -264 119 -413 141 -104 14 -319 7 -422 -16 -291 -64 -571
-214 -766 -411 -118 -120 -210 -263 -270 -421 -32 -84 -97 -323 -139 -508 -8
-38 -20 -88 -25 -110 -15 -63 -51 -235 -60 -290 -5 -27 -16 -89 -24 -137 -37
-206 -78 -498 -97 -693 -22 -227 -28 -316 -59 -890 -13 -235 -13 -1450 0
-1860 21 -651 80 -1045 254 -1696 66 -248 183 -510 312 -701 190 -281 445
-507 764 -677 262 -139 643 -212 996 -191 258 15 476 74 721 194 469 231 872
566 1189 991 198 265 585 858 765 1172 17 30 52 87 86 142 20 31 30 15 38 -59
17 -155 62 -406 106 -584 136 -555 405 -962 832 -1259 350 -244 853 -368 1268
-312 204 27 341 67 549 162 74 34 289 184 380 265 118 105 192 185 284 308
153 204 362 588 476 875 112 282 249 676 318 920 75 260 125 447 177 656 31
123 57 225 60 227 7 7 14 -59 30 -283 8 -121 20 -254 25 -295 6 -41 10 -92 10
-114 0 -21 4 -66 10 -100 5 -33 16 -122 25 -196 9 -74 20 -162 25 -195 19
-121 41 -251 50 -290 5 -22 14 -65 21 -95 12 -57 39 -163 65 -260 75 -279 227
-641 349 -830 141 -219 304 -380 510 -505 276 -167 632 -251 1055 -249 192 1
229 4 342 27 150 32 239 62 372 129 211 106 377 234 544 420 148 166 201 234
327 423 311 469 640 1060 931 1673 90 189 204 441 267 592 20 47 52 123 72
170 98 230 261 649 360 930 67 186 77 224 78 285 1 90 -19 135 -74 172 -41 27
-48 28 -158 27 -205 -1 -366 -67 -493 -201 -65 -69 -101 -137 -163 -313 -26
-75 -118 -317 -135 -355 -4 -11 -39 -94 -75 -185 -74 -182 -167 -400 -213
-500 -16 -36 -39 -87 -52 -115 -47 -106 -63 -140 -229 -475 -183 -371 -240
-480 -389 -745 -52 -93 -110 -197 -127 -230 -18 -33 -42 -77 -53 -97 -12 -21
-38 -68 -58 -105 -21 -37 -55 -97 -77 -133 -22 -36 -51 -85 -65 -110 -43 -77
-167 -247 -247 -339 -83 -96 -110 -122 -166 -159 -84 -57 -152 -71 -226 -48
-73 23 -96 50 -126 149 -40 125 -101 518 -117 741 -39 550 -49 2369 -17 2916
18 307 30 462 47 615 5 50 14 140 20 200 15 156 67 631 90 820 76 631 87 749
100 1120 11 315 -2 748 -26 860 -9 39 -34 107 -56 152 -86 176 -246 283 -510
338 -72 15 -273 27 -338 19z m-1728 -1202 c96 -33 135 -54 216 -116 53 -39 54
-41 47 -80 -3 -23 -13 -61 -21 -86 -14 -40 -28 -89 -54 -185 -4 -16 -15 -57
-25 -90 -9 -33 -21 -73 -25 -90 -18 -64 -62 -232 -70 -265 -6 -29 -29 -117
-90 -350 -8 -31 -38 -155 -71 -300 -6 -25 -14 -61 -19 -80 -6 -19 -17 -66 -25
-105 -26 -116 -33 -148 -45 -198 -5 -26 -19 -91 -30 -145 -11 -53 -27 -128
-35 -167 -9 -38 -20 -90 -25 -115 -18 -91 -29 -144 -60 -285 -4 -22 -14 -67
-20 -100 -12 -57 -30 -141 -50 -230 -5 -22 -16 -74 -25 -115 -9 -41 -20 -94
-26 -117 -5 -24 -13 -62 -18 -85 -33 -147 -43 -194 -66 -293 -14 -60 -30 -129
-35 -152 -6 -24 -14 -62 -20 -85 -5 -24 -17 -74 -25 -113 -9 -38 -20 -86 -25
-105 -5 -19 -20 -82 -34 -140 -14 -58 -35 -143 -47 -190 -11 -47 -24 -101 -29
-120 -12 -55 -61 -262 -70 -295 -5 -16 -23 -82 -40 -145 -17 -63 -37 -135 -44
-160 -7 -25 -19 -65 -26 -90 -7 -25 -16 -56 -21 -70 -4 -14 -26 -86 -49 -160
-56 -183 -75 -237 -126 -362 -151 -372 -391 -729 -582 -865 -200 -143 -335
-118 -430 80 -147 305 -203 661 -219 1390 -15 744 75 1531 258 2247 53 207 72
269 149 500 53 160 151 419 198 520 16 36 43 97 60 135 68 155 207 422 337
645 43 74 89 155 103 180 85 150 323 501 433 635 150 185 320 298 499 334 30
6 64 13 75 15 48 11 164 -4 247 -32z"/>
</g>
</svg>
